<?xml version="1.0" encoding="utf-8"?>
<!-- Generator: Adobe Illustrator 25.1.0, SVG Export Plug-In . SVG Version: 6.00 Build 0)  -->
<svg version="1.1" id="Layer_1" xmlns="http://www.w3.org/2000/svg" xmlns:xlink="http://www.w3.org/1999/xlink" x="0px" y="0px"
	 viewBox="0 0 117.9 38.3" style="enable-background:new 0 0 117.9 38.3;" xml:space="preserve">
<style type="text/css">
	.st0{fill:#FFFFFF;}
</style>
<g id="AppStore">
	<g id="Download_on_the_App_Store_Badge_US-UK_RGB_blk_092917" transform="translate(0.000000, 0.000000)">
		<g id="Group_1_">
			<g id="Path">
				<path d="M7.6,38.2c-0.3,0-0.6,0-0.9,0c-0.6,0-1.3-0.1-1.9-0.2c-0.6-0.1-1.1-0.3-1.7-0.5c-0.5-0.3-1-0.6-1.4-1
					c-0.4-0.4-0.8-0.9-1-1.4c-0.3-0.5-0.4-1.1-0.5-1.7C0.1,32.8,0,32.2,0,31.6c0-0.2,0-0.9,0-0.9V7.6c0,0,0-0.7,0-0.9
					C0,6,0.1,5.4,0.2,4.8c0.1-0.6,0.3-1.1,0.5-1.7c0.3-0.5,0.6-1,1-1.4c0.4-0.4,0.9-0.8,1.4-1c0.5-0.3,1.1-0.4,1.7-0.5
					C5.4,0.1,6,0,6.7,0l0.9,0h102.8l0.9,0c0.6,0,1.2,0.1,1.9,0.2c0.6,0.1,1.1,0.3,1.7,0.5c1,0.5,1.9,1.4,2.4,2.4
					c0.3,0.5,0.4,1.1,0.5,1.6c0.1,0.6,0.2,1.3,0.2,1.9c0,0.3,0,0.6,0,0.9c0,0.4,0,0.7,0,1.1v20.9c0,0.4,0,0.7,0,1.1
					c0,0.3,0,0.6,0,0.9c0,0.6-0.1,1.2-0.2,1.9c-0.1,0.6-0.3,1.1-0.5,1.7c-0.3,0.5-0.6,1-1,1.4c-0.4,0.4-0.9,0.8-1.4,1
					c-0.5,0.3-1.1,0.5-1.7,0.5c-0.6,0.1-1.2,0.2-1.9,0.2c-0.3,0-0.6,0-0.9,0l-1.1,0L7.6,38.2z"/>
			</g>
			<g id="_Group_" transform="translate(9.098557, 7.845270)">
				<g id="_Group_3">
					<path id="_Path_" class="st0" d="M14.8,11.6c0-1.7,0.9-3.3,2.4-4.2c-0.9-1.3-2.4-2.1-4-2.2c-1.7-0.2-3.3,1-4.2,1
						c-0.9,0-2.2-1-3.6-1C3.5,5.4,1.8,6.4,0.9,8c-1.9,3.3-0.5,8.3,1.4,11c0.9,1.3,2,2.8,3.4,2.8c1.4-0.1,1.9-0.9,3.6-0.9
						c1.7,0,2.1,0.9,3.6,0.9c1.5,0,2.4-1.3,3.3-2.7c0.7-0.9,1.2-2,1.5-3.1C15.9,15.2,14.8,13.5,14.8,11.6L14.8,11.6z"/>
					<path id="_Path_2" class="st0" d="M12.1,3.5c0.8-1,1.2-2.2,1.1-3.5c-1.2,0.1-2.4,0.7-3.2,1.7C9.2,2.6,8.7,3.8,8.8,5
						C10.1,5,11.3,4.5,12.1,3.5L12.1,3.5z"/>
				</g>
				<g id="Group" transform="translate(24.455703, 9.150770)">
					<path id="Shape" class="st0" d="M7.9,9.3H3.1L2,12.6H0L4.5,0.2h2.1L11,12.6H9L7.9,9.3z M3.6,7.7h3.8L5.5,2.3H5.5L3.6,7.7z"/>
					<path id="Shape_1_" class="st0" d="M20.7,8.1c0,2.8-1.5,4.6-3.8,4.6c-1.2,0.1-2.3-0.6-2.8-1.6h0v4.5h-1.9v-12H14v1.5h0
						c0.6-1,1.7-1.6,2.9-1.6C19.2,3.5,20.7,5.3,20.7,8.1z M18.8,8.1c0-1.8-0.9-3-2.4-3c-1.4,0-2.4,1.2-2.4,3c0,1.8,1,3,2.4,3
						C17.9,11.1,18.8,9.9,18.8,8.1z"/>
					<path id="Shape_2_" class="st0" d="M30.7,8.1c0,2.8-1.5,4.6-3.8,4.6c-1.2,0.1-2.3-0.6-2.8-1.6h0v4.5h-1.9v-12H24v1.5h0
						c0.6-1,1.7-1.6,2.9-1.6C29.2,3.5,30.7,5.3,30.7,8.1z M28.8,8.1c0-1.8-0.9-3-2.4-3c-1.4,0-2.4,1.2-2.4,3c0,1.8,1,3,2.4,3
						C27.8,11.1,28.8,9.9,28.8,8.1L28.8,8.1z"/>
					<path id="Path_1_" class="st0" d="M37.3,9.2c0.1,1.2,1.3,2,3,2c1.6,0,2.7-0.8,2.7-1.9c0-1-0.7-1.5-2.3-1.9L39,7
						c-2.3-0.6-3.3-1.6-3.3-3.3c0-2.1,1.9-3.6,4.5-3.6c2.6,0,4.4,1.5,4.5,3.6h-1.9c-0.1-1.2-1.1-2-2.6-2s-2.5,0.8-2.5,1.9
						c0,0.9,0.7,1.4,2.3,1.8l1.4,0.3c2.5,0.6,3.6,1.6,3.6,3.4c0,2.3-1.9,3.8-4.8,3.8c-2.8,0-4.6-1.4-4.7-3.7L37.3,9.2z"/>
					<path id="Path_2_" class="st0" d="M48.9,1.4v2.1h1.7V5h-1.7v5c0,0.8,0.3,1.1,1.1,1.1c0.2,0,0.4,0,0.6,0v1.5
						c-0.3,0.1-0.7,0.1-1,0.1c-1.8,0-2.5-0.7-2.5-2.4V5h-1.3V3.6h1.3V1.4H48.9z"/>
					<path id="Shape_3_" class="st0" d="M51.6,8.1c0-2.8,1.7-4.6,4.3-4.6c2.6,0,4.3,1.8,4.3,4.6c0,2.9-1.7,4.6-4.3,4.6
						C53.3,12.7,51.6,11,51.6,8.1z M58.3,8.1c0-2-0.9-3.1-2.4-3.1s-2.4,1.2-2.4,3.1c0,2,0.9,3.1,2.4,3.1S58.3,10.1,58.3,8.1
						L58.3,8.1z"/>
					<path id="Path_3_" class="st0" d="M61.8,3.6h1.8v1.5h0c0.2-1,1.2-1.7,2.2-1.6c0.2,0,0.4,0,0.6,0.1v1.7
						c-0.3-0.1-0.6-0.1-0.8-0.1c-0.5,0-1.1,0.2-1.4,0.6c-0.4,0.4-0.6,0.9-0.5,1.5v5.4h-1.9V3.6z"/>
					<path id="Shape_4_" class="st0" d="M75,10c-0.2,1.6-1.9,2.8-3.9,2.8c-2.6,0-4.3-1.8-4.3-4.6c0-2.8,1.6-4.7,4.2-4.7
						c2.5,0,4.1,1.7,4.1,4.5v0.6h-6.4v0.1c-0.1,0.7,0.2,1.3,0.6,1.8c0.5,0.5,1.1,0.8,1.8,0.7c0.9,0.1,1.8-0.4,2.1-1.3L75,10z
						 M68.7,7.3h4.5c0-0.6-0.2-1.2-0.6-1.6S71.6,5,71,5c-0.6,0-1.2,0.2-1.6,0.7C68.9,6.1,68.7,6.7,68.7,7.3L68.7,7.3z"/>
				</g>
			</g>
		</g>
		<g id="_Group_4" transform="translate(34.797910, 7.562000)">
			<g id="Group_2_" transform="translate(0.000000, 0.000000)">
				<path id="Shape_5_" class="st0" d="M2.2,0.3c0.8-0.1,1.6,0.2,2.1,0.8S5.1,2.5,5,3.3c0,1.9-1,3-2.8,3H0v-6H2.2z M0.9,5.4h1.1
					c0.6,0,1.1-0.2,1.5-0.6c0.4-0.4,0.6-1,0.5-1.5c0.1-0.6-0.1-1.1-0.5-1.5S2.6,1.1,2.1,1.1H0.9V5.4z"/>
				<path id="Shape_6_" class="st0" d="M6,4C5.9,3.2,6.3,2.4,7,2s1.6-0.4,2.2,0s1.1,1.2,1,2c0.1,0.8-0.3,1.6-1,2
					C8.6,6.5,7.7,6.5,7,6S5.9,4.8,6,4z M9.3,4c0-1-0.4-1.5-1.2-1.5C7.4,2.5,6.9,3,6.9,4c0,1,0.4,1.6,1.2,1.6C8.9,5.6,9.3,5,9.3,4
					L9.3,4z"/>
				<polygon id="Path_4_" class="st0" points="15.9,6.3 15,6.3 14,2.9 14,2.9 13.1,6.3 12.1,6.3 10.9,1.8 11.8,1.8 12.6,5.2 
					12.7,5.2 13.6,1.8 14.5,1.8 15.4,5.2 15.4,5.2 16.2,1.8 17.1,1.8 				"/>
				<path id="Path_5_" class="st0" d="M18.2,1.8H19v0.7h0.1c0.2-0.5,0.8-0.8,1.3-0.8c0.4,0,0.9,0.1,1.2,0.5s0.4,0.8,0.4,1.2v2.9
					h-0.9V3.6c0-0.7-0.3-1.1-1-1.1c-0.3,0-0.6,0.1-0.8,0.3C19.1,3,19,3.3,19.1,3.6v2.6h-0.9V1.8z"/>
				<polygon id="Path_6_" class="st0" points="23.4,0 24.3,0 24.3,6.3 23.4,6.3 				"/>
				<path id="Shape_7_" class="st0" d="M25.5,4c-0.1-0.8,0.3-1.6,1-2c0.7-0.4,1.6-0.4,2.2,0s1.1,1.2,1,2c0.1,0.8-0.3,1.6-1,2
					c-0.7,0.4-1.6,0.4-2.3,0C25.9,5.6,25.5,4.8,25.5,4L25.5,4z M28.9,4c0-1-0.4-1.5-1.2-1.5c-0.8,0-1.2,0.6-1.2,1.5
					c0,1,0.4,1.6,1.2,1.6C28.4,5.6,28.9,5,28.9,4L28.9,4z"/>
				<path id="Shape_8_" class="st0" d="M30.7,5c0-0.8,0.6-1.3,1.7-1.3l1.2-0.1V3.2c0-0.5-0.3-0.7-0.9-0.7c-0.5,0-0.8,0.2-0.9,0.5
					h-0.9c0.1-0.8,0.8-1.3,1.8-1.3c1.1,0,1.8,0.6,1.8,1.5v3.1h-0.9V5.6h-0.1c-0.3,0.5-0.8,0.7-1.4,0.7c-0.4,0-0.8-0.1-1-0.3
					C30.9,5.7,30.7,5.4,30.7,5L30.7,5z M33.6,4.6V4.2l-1.1,0.1c-0.6,0-0.9,0.3-0.9,0.6c0,0.4,0.4,0.6,0.8,0.6c0.3,0,0.6-0.1,0.8-0.2
					C33.5,5.2,33.6,4.9,33.6,4.6z"/>
				<path id="Shape_9_" class="st0" d="M35.7,4c0-1.4,0.7-2.3,1.9-2.3c0.6,0,1.1,0.3,1.4,0.8H39V0h0.9v6.3H39V5.5H39
					c-0.3,0.5-0.8,0.8-1.4,0.8C36.4,6.3,35.7,5.4,35.7,4z M36.6,4c0,1,0.5,1.5,1.2,1.5C38.5,5.5,39,5,39,4c0-0.9-0.5-1.5-1.2-1.5
					C37.1,2.5,36.6,3.1,36.6,4L36.6,4z"/>
				<path id="Shape_10_" class="st0" d="M43.6,4c-0.1-0.8,0.3-1.6,1-2c0.7-0.4,1.6-0.4,2.2,0c0.7,0.4,1.1,1.2,1,2
					c0.1,0.8-0.3,1.6-1,2c-0.7,0.4-1.6,0.4-2.3,0C43.9,5.6,43.5,4.8,43.6,4L43.6,4z M46.9,4c0-1-0.4-1.5-1.2-1.5
					c-0.8,0-1.2,0.6-1.2,1.5c0,1,0.4,1.6,1.2,1.6C46.5,5.6,46.9,5,46.9,4z"/>
				<path id="Path_7_" class="st0" d="M49,1.8h0.9v0.7h0.1c0.2-0.5,0.8-0.8,1.3-0.8c0.4,0,0.9,0.1,1.2,0.5s0.4,0.8,0.4,1.2v2.9h-0.9
					V3.6c0-0.7-0.3-1.1-1-1.1c-0.3,0-0.6,0.1-0.8,0.3C50,3,49.9,3.3,49.9,3.6v2.6H49V1.8z"/>
				<path id="Path_8_" class="st0" d="M57.8,0.6v1.1h1v0.7h-1v2.3c0,0.5,0.2,0.7,0.6,0.7c0.1,0,0.2,0,0.3,0v0.7c-0.2,0-0.3,0-0.5,0
					c-1,0-1.4-0.3-1.4-1.2V2.5h-0.7V1.8H57V0.6H57.8z"/>
				<path id="Path_9_" class="st0" d="M60,0h0.9v2.5H61c0.2-0.5,0.8-0.9,1.4-0.8c0.4,0,0.9,0.1,1.2,0.5c0.3,0.3,0.4,0.8,0.4,1.2v2.9
					H63V3.6c0-0.7-0.3-1.1-1-1.1c-0.3,0-0.6,0.1-0.8,0.3s-0.3,0.5-0.3,0.8v2.6H60L60,0z"/>
				<path id="Shape_11_" class="st0" d="M69.1,5c-0.2,0.8-1.1,1.4-2,1.3c-0.6,0-1.2-0.2-1.6-0.7c-0.4-0.4-0.6-1-0.5-1.6
					c-0.1-0.6,0.1-1.2,0.5-1.7s1-0.7,1.6-0.7c1.3,0,2,0.9,2,2.3v0.3H66v0c0,0.3,0.1,0.7,0.3,0.9c0.2,0.2,0.5,0.4,0.9,0.4
					C67.6,5.6,68,5.4,68.2,5L69.1,5z M66,3.6h2.3c0-0.3-0.1-0.6-0.3-0.8c-0.2-0.2-0.5-0.3-0.8-0.3c-0.3,0-0.6,0.1-0.8,0.3
					S66,3.3,66,3.6L66,3.6z"/>
			</g>
		</g>
	</g>
</g>
</svg>
