<?xml version="1.0" encoding="utf-8"?>
<!-- Generator: Adobe Illustrator 25.1.0, SVG Export Plug-In . SVG Version: 6.00 Build 0)  -->
<svg version="1.1" id="Layer_1" xmlns="http://www.w3.org/2000/svg" xmlns:xlink="http://www.w3.org/1999/xlink" x="0px" y="0px"
	 viewBox="0 0 117.9 38.3" style="enable-background:new 0 0 117.9 38.3;" xml:space="preserve">
<style type="text/css">
	.st0{fill:#5865F2;}
	.st1{fill:#FFFFFF;}
</style>
<g id="Discord">
	<g id="Rectangle" transform="translate(0.000000, 0.000000)">
		<g id="Mask">
			<path id="path-1_1_" class="st0" d="M7.6,38.2c-0.3,0-0.6,0-0.9,0c-0.6,0-1.3-0.1-1.9-0.2c-0.6-0.1-1.1-0.3-1.7-0.5
				c-0.5-0.3-1-0.6-1.4-1c-0.4-0.4-0.8-0.9-1-1.4c-0.3-0.5-0.4-1.1-0.5-1.7C0.1,32.8,0,32.2,0,31.6c0-0.2,0-0.9,0-0.9V7.6
				c0,0,0-0.7,0-0.9C0,6,0.1,5.4,0.2,4.8c0.1-0.6,0.3-1.1,0.5-1.7c0.3-0.5,0.6-1,1-1.4c0.4-0.4,0.9-0.8,1.4-1
				c0.5-0.3,1.1-0.4,1.7-0.5C5.4,0.1,6,0,6.7,0l0.9,0h102.8l0.9,0c0.6,0,1.2,0.1,1.9,0.2c0.6,0.1,1.1,0.3,1.7,0.5
				c1,0.5,1.9,1.4,2.4,2.4c0.3,0.5,0.4,1.1,0.5,1.6c0.1,0.6,0.2,1.3,0.2,1.9c0,0.3,0,0.6,0,0.9c0,0.4,0,0.7,0,1.1v20.9
				c0,0.4,0,0.7,0,1.1c0,0.3,0,0.6,0,0.9c0,0.6-0.1,1.2-0.2,1.9c-0.1,0.6-0.3,1.1-0.5,1.7c-0.3,0.5-0.6,1-1,1.4
				c-0.4,0.4-0.9,0.8-1.4,1c-0.5,0.3-1.1,0.5-1.7,0.5c-0.6,0.1-1.2,0.2-1.9,0.2c-0.3,0-0.6,0-0.9,0l-1.1,0L7.6,38.2z"/>
		</g>
	</g>
	<path id="Jointhe" class="st1" d="M40.1,14.1c1.2,0,2-0.7,2-2V7.7h-1v4.5c0,0.7-0.4,1.1-1,1.1c-0.6,0-0.9-0.4-0.9-0.9l0,0h-1l0,0.1
		C38.2,13.4,38.9,14.1,40.1,14.1z M45.1,14.1c1.3,0,2.2-0.9,2.2-2.4v0c0-1.5-0.9-2.4-2.2-2.4c-1.3,0-2.2,0.9-2.2,2.4v0
		C42.9,13.2,43.8,14.1,45.1,14.1z M45.1,13.3c-0.7,0-1.2-0.6-1.2-1.6v0c0-1,0.5-1.6,1.2-1.6c0.7,0,1.2,0.6,1.2,1.6v0
		C46.3,12.7,45.9,13.3,45.1,13.3z M48.6,8.7c0.3,0,0.6-0.2,0.6-0.5c0-0.3-0.2-0.5-0.6-0.5c-0.3,0-0.6,0.2-0.6,0.5
		C48,8.4,48.2,8.7,48.6,8.7z M49,14V9.4h-0.9V14H49z M51,14v-2.7c0-0.7,0.4-1.2,1.1-1.2c0.7,0,1,0.4,1,1.1V14h1v-3
		c0-1.1-0.6-1.7-1.6-1.7c-0.7,0-1.2,0.3-1.4,0.8h0V9.4H50V14H51z M58.4,14.1c0.2,0,0.4,0,0.5,0v-0.7c-0.1,0-0.2,0-0.3,0
		c-0.4,0-0.6-0.1-0.6-0.6v-2.6h0.9V9.4H58V8.2h-1v1.2h-0.7v0.8H57v2.6C57,13.7,57.4,14.1,58.4,14.1z M60.6,14v-2.7
		c0-0.7,0.4-1.2,1.1-1.2c0.7,0,1.1,0.5,1.1,1.2V14h0.9v-2.9c0-1.1-0.7-1.9-1.6-1.9c-0.7,0-1.2,0.3-1.4,0.8h0V7.7h-0.9V14H60.6z
		 M66.6,14.1c1.1,0,1.8-0.7,2-1.4l0,0h-0.9l0,0c-0.1,0.3-0.5,0.6-1.1,0.6c-0.8,0-1.2-0.5-1.3-1.4h3.3v-0.3c0-1.4-0.8-2.3-2.1-2.3
		s-2.1,1-2.1,2.4v0C64.4,13.2,65.2,14.1,66.6,14.1z M67.7,11.3h-2.3c0.1-0.8,0.6-1.2,1.2-1.2C67.2,10.1,67.6,10.5,67.7,11.3z"/>
	<path class="st1" d="M42.6,30c3.8,0,6-2.4,6-6.4v0c0-4-2.2-6.3-6-6.3h-4.5V30H42.6z M42.5,28.3h-2.3V19h2.3c2.7,0,4.2,1.6,4.2,4.6
		v0C46.6,26.7,45.1,28.3,42.5,28.3z M51.3,19.3c0.6,0,1.1-0.5,1.1-1.1c0-0.6-0.5-1.1-1.1-1.1c-0.6,0-1.1,0.5-1.1,1.1
		C50.2,18.8,50.7,19.3,51.3,19.3z M52.3,30v-9.2h-1.9V30H52.3z M57.7,30.2c2.2,0,3.8-1.2,3.8-2.8v0c0-1.3-0.7-2.1-2.6-2.5l-1.5-0.3
		c-1-0.2-1.4-0.6-1.4-1.2v0c0-0.7,0.6-1.2,1.7-1.2c1.1,0,1.7,0.6,1.8,1.4l0,0.1h1.8l0-0.1c-0.1-1.6-1.4-2.8-3.6-2.8
		c-2.1,0-3.6,1.1-3.6,2.8v0c0,1.3,0.9,2.2,2.6,2.6l1.5,0.3c1,0.2,1.3,0.6,1.3,1.2v0c0,0.7-0.7,1.2-1.8,1.2c-1.2,0-1.8-0.5-2-1.4
		l0-0.1h-1.9l0,0.1C54,29,55.4,30.2,57.7,30.2z M66.9,30.2c2.2,0,3.8-1.4,4-3.3l0-0.1h-1.8l0,0.1c-0.2,1-1,1.7-2.1,1.7
		c-1.5,0-2.4-1.2-2.4-3.2v0c0-2,1-3.2,2.4-3.2c1.2,0,1.9,0.8,2.1,1.7l0,0.1h1.8l0-0.1c-0.2-1.7-1.6-3.3-4-3.3
		c-2.6,0-4.4,1.9-4.4,4.8v0C62.5,28.3,64.2,30.2,66.9,30.2z M76.2,30.2c2.6,0,4.4-1.8,4.4-4.8v0c0-3-1.8-4.8-4.4-4.8
		c-2.6,0-4.4,1.8-4.4,4.8v0C71.8,28.3,73.5,30.2,76.2,30.2z M76.2,28.6c-1.5,0-2.5-1.2-2.5-3.2v0c0-2,1-3.2,2.4-3.2
		c1.5,0,2.5,1.2,2.5,3.2v0C78.6,27.4,77.7,28.6,76.2,28.6z M84,30v-5.5c0-1.4,0.8-2.2,2-2.2c0.4,0,0.7,0,0.9,0.1v-1.8
		c-0.1,0-0.4-0.1-0.7-0.1c-1.1,0-1.8,0.7-2.1,1.8h0v-1.6h-1.9V30H84z M91.4,30.2c1.3,0,2.3-0.7,2.9-1.7h0V30h1.9V17.3h-1.9v5h0
		c-0.6-1.1-1.6-1.7-2.9-1.7c-2.3,0-3.8,1.8-3.8,4.8v0C87.5,28.3,89.1,30.2,91.4,30.2z M91.9,28.5c-1.5,0-2.4-1.2-2.4-3.2v0
		c0-2,0.9-3.2,2.4-3.2c1.4,0,2.4,1.2,2.4,3.2v0C94.4,27.3,93.3,28.5,91.9,28.5z"/>
	<g id="Discord-Logo-White-_x28_2_x29_" transform="translate(9.000000, 11.000000)">
		<path id="Shape" class="st1" d="M18.6,1.4c-1.4-0.7-2.9-1.1-4.5-1.4c0,0-0.1,0-0.1,0c-0.2,0.3-0.4,0.8-0.6,1.2
			c-1.7-0.3-3.4-0.3-5,0C8.3,0.8,8.1,0.4,7.9,0c0,0,0,0-0.1,0C6.3,0.3,4.8,0.8,3.4,1.4c0,0,0,0,0,0C0.5,5.8-0.3,10,0.1,14.1
			c0,0,0,0,0,0.1C2,15.6,3.8,16.4,5.6,17c0,0,0.1,0,0.1,0c0.4-0.6,0.8-1.2,1.1-1.9c0,0,0-0.1,0-0.1c-0.6-0.2-1.2-0.5-1.7-0.8
			c0,0,0-0.1,0-0.1c0.1-0.1,0.2-0.2,0.3-0.3c0,0,0,0,0.1,0c3.6,1.7,7.5,1.7,11.1,0c0,0,0.1,0,0.1,0c0.1,0.1,0.2,0.2,0.3,0.3
			c0,0,0,0.1,0,0.1c-0.5,0.3-1.1,0.6-1.7,0.8c0,0-0.1,0.1,0,0.1c0.3,0.6,0.7,1.3,1.1,1.9c0,0,0,0,0.1,0c1.8-0.6,3.6-1.4,5.5-2.8
			c0,0,0,0,0-0.1C22.4,9.3,21.1,5.1,18.6,1.4C18.6,1.4,18.6,1.4,18.6,1.4z M7.4,11.6c-1.1,0-2-1-2-2.2s0.9-2.2,2-2.2
			c1.1,0,2,1,2,2.2C9.3,10.6,8.5,11.6,7.4,11.6z M14.7,11.6c-1.1,0-2-1-2-2.2s0.9-2.2,2-2.2c1.1,0,2,1,2,2.2
			C16.6,10.6,15.8,11.6,14.7,11.6z"/>
	</g>
</g>
</svg>
